<?xml version="1.0" encoding="iso-8859-1"?>
<!-- Generator: Adobe Illustrator 18.0.0, SVG Export Plug-In . SVG Version: 6.00 Build 0)  -->
<!DOCTYPE svg PUBLIC "-//W3C//DTD SVG 1.1//EN" "http://www.w3.org/Graphics/SVG/1.1/DTD/svg11.dtd">
<svg version="1.1" id="Capa_1" xmlns="http://www.w3.org/2000/svg" xmlns:xlink="http://www.w3.org/1999/xlink" x="0px" y="0px"
	 viewBox="0 0 203.496 203.496" style="enable-background:new 0 0 203.496 203.496;" xml:space="preserve">
<g>
	<path d="M185.93,62.885c-0.307,0.073-0.486,0.306-0.604,0.572c-2.332,0.282-4.527,1.051-6.522,2.145
		c-0.12-0.275-0.31-0.522-0.644-0.671c-12.984-5.8-27.507-7.613-42.363-7.073c-1.52-12.8-5.701-24.749-15.709-34.082
		c1.525-3.954,1.696-8.444,0.013-12.606C117.403,4.5,105.417-4.749,99.128,2.858c-6.757,1.283-11.47,7.535-11.923,14.267
		c-8.909,5.165-15.357,13.253-20.038,22.676c-16.264-5.292-32.615-5.597-43.82,6.752c-0.086,0.094-0.063,0.194-0.112,0.292
		c-1.638-0.349-3.386-0.287-5.21,0.381c-0.128,0.047-0.186,0.157-0.28,0.237c-4.664,1.134-9.432,3.765-12.274,7.582
		c-0.106-0.012-0.213-0.014-0.319-0.026c-0.632-0.075-0.824,0.793-0.435,1.158c-1.42,2.353-2.159,5.08-1.696,8.186
		c1.049,7.034,8.39,14.473,15.867,15.096c0.023,0.062-0.012,0.113,0.025,0.176c2.465,4.198,5.145,8.209,8.011,12.048
		c-10.499,8.078-18.069,18.451-17.818,31.589c-0.107,0.134-0.196,0.289-0.185,0.498c0.064,1.198,0.24,2.32,0.465,3.409
		c0.009,0.067,0.01,0.132,0.02,0.2c0.005,0.034,0.036,0.039,0.044,0.07c4.042,18.297,30.305,21.259,51.963,20.092
		c2.824,12.603,5.449,25.998,16.7,33.375c-0.342,1.176-0.6,2.378-0.658,3.622c-0.435,9.424,7.445,19.986,17.622,18.878
		c7.639-0.831,13.712-8.241,15.424-15.836c0.955-0.171,1.69-0.623,2.207-1.291c0.267-0.058,0.532-0.196,0.772-0.462
		c6.782-7.531,11.32-15.792,14.428-24.516c0.311,0.004,0.593-0.109,0.832-0.275c8.435,4.748,20.15,4.031,29.086,1.65
		c5.674-1.512,19.343-5.745,18.291-13.465c0.295-0.238,0.516-0.582,0.571-1.041c1.51-12.584-2.726-24.292-9.921-34.998
		c6.64-4.905,12.568-10.454,17.35-16.83C207.02,98.585,204.592,58.412,185.93,62.885z M135.221,103.535
		c0.179-5.364,0.546-10.958,0.852-16.632c9.128,7.488,18.365,15.94,25.441,25.249c-8.384,5.459-17.675,9.67-27.2,13.283
		C134.778,118.186,134.977,110.852,135.221,103.535z M133.133,79.618c-7.082-5.476-14.058-10.412-20.092-14.756
		c6.583-1.194,13.202-2.143,19.814-2.647C133.306,67.94,133.316,73.778,133.133,79.618z M132.955,84.371
		c-0.292,6.478-0.719,12.92-0.925,19.164c-0.254,7.675-0.45,15.428-0.968,23.106c-7.615,2.774-15.325,5.226-22.798,7.657
		c-4.511,1.468-10.98,3.396-18.45,5.226c-10.797-6.195-21.116-12.983-30.79-20.625c-0.487-8.084-0.553-15.579-0.472-21.464
		c0.081-5.871,0.451-12.431,1.259-19.212c9.616-3.401,19.231-5.881,27.342-7.783c7.083-1.661,14.294-3.337,21.565-4.768
		c3.904,2.841,7.497,5.595,10.659,8.066C123.563,77.011,128.202,80.559,132.955,84.371z M91.287,12.372
		c3.876,0.32,7.838,0.787,11.693,0.523c0.713-0.049,0.981-1.19,0.18-1.333c-3.57-0.64-7.294-0.667-10.952-0.752
		c0.824-1.242,1.849-2.37,2.999-3.389c0.008-0.001,0.012,0.006,0.021,0.005c4.568-0.742,8.932-0.444,13.487,0.209
		c0.999,0.143,1.466-1.284,0.43-1.56c-3.74-0.995-7.621-1.04-11.437-0.55c0.541-0.356,1.087-0.707,1.657-1.02
		c0.276,0.176,0.61,0.259,1.002,0.037c7.928-4.479,16.784,2.702,18.066,10.664c1.232,7.649-4.047,14.983-11.581,16.519
		c-5.386,1.098-10.563-1.16-13.751-5.198c3.49,0.346,7.039,0.853,10.539,0.775c0.6-0.014,0.793-0.996,0.148-1.096
		c-3.737-0.575-7.61-0.497-11.382-0.643c-0.015,0-0.019,0.012-0.033,0.013c-0.955-1.44-1.688-3.054-2.088-4.817
		c-0.063-0.276-0.056-0.532-0.101-0.803c4.058,0.112,8.079,0.465,12.133,0.764c0.691,0.051,0.862-1.113,0.166-1.224
		c-4.097-0.648-8.289-0.735-12.44-0.664C89.854,16.462,90.34,14.306,91.287,12.372z M87.357,20.555
		c0.052,0.326,0.045,0.654,0.119,0.979c2.32,10.109,12.956,15.746,22.641,12.228c4.071-1.478,7.17-4.467,9.084-8.079
		c8.196,9.494,11.824,20.615,13.246,32.345c-8.177,0.488-16.422,1.627-24.55,3.219c-10.065-6.93-23.781-15.383-37.832-20.454
		C74.258,32.488,79.86,25.336,87.357,20.555z M68.864,43.319c12.272,4.275,24.423,11.565,34.85,18.803
		c-12.653,2.71-24.926,6.323-36.041,9.884c-2.328,0.746-4.795,1.578-7.345,2.496C61.838,63.892,64.45,52.944,68.864,43.319z
		 M9.64,71.16c2.246-0.024,4.44,0.238,6.616,0.906c0.519,0.159,0.728-0.634,0.222-0.807c-2.473-0.844-4.983-1.117-7.576-0.976
		c-1.287-1.701-2.145-3.654-2.526-5.668c3.768,0.275,7.541,0.632,11.32,0.605c0.972-0.007,0.911-1.355,0-1.469
		c-3.828-0.48-7.697-0.566-11.55-0.744c-0.038-0.952,0.03-1.906,0.268-2.849c0.329-1.304,0.886-2.428,1.573-3.444
		c3.005,0.364,6.016,0.597,9.057,0.476c0.977-0.039,0.986-1.518,0-1.524c-2.664-0.019-5.318-0.137-7.969-0.324
		c1.58-1.741,3.631-3.073,5.768-4.271c1.394,0.014,2.788,0.048,4.184,0.021c0.813-0.015,0.815-1.249,0-1.264
		c-0.639-0.012-1.276,0.013-1.914,0.01c0.376-0.196,0.754-0.397,1.126-0.59c0.026,0.001,0.035,0.023,0.062,0.022
		c15.507-0.382,17.231,24.632,2.635,26.724C16.807,76.588,12.534,74.454,9.64,71.16z M21.258,79.421
		c0.439-0.053,0.879-0.115,1.313-0.223c7.981-1.988,12.244-11.14,11.372-18.796c-0.567-4.978-3.871-10.592-8.485-12.804
		c11.679-9.59,26.064-9.671,40.497-5.23c-4.677,10.348-7.358,22.082-8.835,33.325C47.85,79.218,37.8,83.89,29.289,89.936
		C26.516,86.563,23.836,83.063,21.258,79.421z M56.349,116.781c-8.949-7.305-17.274-15.443-24.958-24.462
		c7.473-5.353,16.311-9.583,25.304-12.961c-0.558,5.083-0.909,10.035-1.067,14.642C55.367,101.599,55.653,109.207,56.349,116.781z
		 M11.239,125.786c0.55-13.388,7.566-23.663,17.659-31.595c8.118,10.36,17.588,19.468,27.963,27.56
		c0.9,7.695,2.246,15.336,3.929,22.883C38.502,146.754,16.661,143.728,11.239,125.786z M59.359,123.722
		c8.202,6.187,16.933,11.749,25.928,16.871c-7.225,1.63-15.154,3.078-23.082,3.907C60.81,137.657,59.912,130.551,59.359,123.722z
		 M94.087,200.624c-3.216,0.127-6.08-1.211-8.372-3.301c3.306-0.109,6.531,0.137,9.831,0.601c0.482,0.068,0.711-0.639,0.208-0.753
		c-3.527-0.796-7.183-0.882-10.781-0.623c-1.438-1.512-2.574-3.34-3.381-5.274c4.047,0.049,8.091,0.127,12.138-0.014
		c0.837-0.029,0.839-1.272,0-1.301c-4.187-0.146-8.372-0.058-12.56-0.009c-0.013,0-0.016,0.012-0.028,0.012
		c-0.565-1.741-0.883-3.528-0.801-5.261c4.245,0.047,8.486,0.131,12.729-0.051c0.837-0.036,0.838-1.265,0-1.301
		c-4.175-0.179-8.351-0.1-12.528-0.053c0.33-2.173,1.166-4.027,2.305-5.635c0.084,0.046,0.158,0.107,0.272,0.096
		c4.19-0.4,8.387-0.441,12.59-0.257c0.933,0.041,0.901-1.343,0-1.432c-4.005-0.394-7.946-0.219-11.911,0.354
		c2.915-3.247,7.34-5.131,11.931-5.684c0.245-0.03,0.421-0.184,0.554-0.37C112.184,170.557,111.076,199.951,94.087,200.624z
		 M111.248,183.591c-0.121,0.134-0.182,0.278-0.249,0.421c0.028-0.812,0.02-1.617-0.071-2.402
		c-1.068-9.313-10.471-15.931-19.493-13.281c-0.509,0.149-0.771,0.501-0.873,0.893c-5.094,0.968-9.467,4.695-11.642,9.477
		c-8.153-6.506-13.105-18.232-16.084-31.246c8.567-0.536,16.307-1.683,21.487-2.734c1.982-0.402,4.007-0.828,6.055-1.273
		c11.327,6.168,23.014,11.661,34.62,16.712C122.028,168.522,117.694,176.428,111.248,183.591z M125.852,157.571
		c-10.607-4.689-20.915-9.705-30.861-15.163c11.512-2.634,23.756-5.988,35.653-10.413
		C129.839,140.759,128.465,149.37,125.852,157.571z M173.747,147.213c-0.386,0.29-0.643,0.782-0.556,1.411
		c1.075,7.733-16.912,11.433-21.862,12.161c-7.275,1.07-15.693,0.998-22.51-2.211c2.842-8.909,4.277-18.273,5.097-27.835
		c10.629-4.16,20.871-9.2,29.905-15.405C170.544,125.088,174.711,135.737,173.747,147.213z M164.561,110.05
		c-7.647-10.355-17.91-19.726-28.252-27.944c0.293-6.716,0.394-13.492-0.106-20.096c13.476-0.71,26.876,0.573,39.792,5.512
		c-3.305,2.758-5.592,6.681-5.937,11.35c-0.534,7.238,3.615,14.071,10.185,16.547C175.683,101.126,170.377,105.927,164.561,110.05z
		 M182.101,92.986c-1.984-0.565-3.66-1.653-5.052-3.023c1.975,0.057,3.949,0.126,5.928,0.121c0.864-0.002,0.86-1.311,0-1.339
		c-2.369-0.077-4.734-0.075-7.102-0.069c-1.033-1.338-1.762-2.896-2.254-4.529c3.331,0.469,6.659,0.95,10.005,1.31
		c0.588,0.063,0.732-0.954,0.141-1.041c-3.472-0.512-6.955-0.9-10.441-1.299c-0.376-1.711-0.437-3.492-0.143-5.244
		c3.707,0.119,7.404,0.212,11.115,0.181c0.589-0.005,0.584-0.886,0-0.911c-3.641-0.155-7.272-0.186-10.913-0.195
		c0.541-2.264,1.581-4.228,2.956-5.908c3.756,0.091,7.497,0.229,11.249,0.558c0.588,0.052,0.733-0.951,0.141-1.041
		c-3.409-0.516-6.864-0.767-10.313-0.674c2.309-2.314,5.296-3.993,8.532-4.988c8.363,1.36,12.763,7.528,12.051,16.04
		C197.319,89.087,190.398,95.347,182.101,92.986z"/>
</g>
<g>
</g>
<g>
</g>
<g>
</g>
<g>
</g>
<g>
</g>
<g>
</g>
<g>
</g>
<g>
</g>
<g>
</g>
<g>
</g>
<g>
</g>
<g>
</g>
<g>
</g>
<g>
</g>
<g>
</g>
</svg>
